<mxfile host="app.diagrams.net" modified="2021-11-10T22:36:47.979Z" agent="5.0 (Windows NT 10.0; Win64; x64) AppleWebKit/537.36 (KHTML, like Gecko) Chrome/95.0.4638.69 Safari/537.36" etag="3HyQYT-Gm6GHE24k1Zgp" version="15.7.3" type="github">
  <diagram id="u-EyOmA1ZWcnquUBd4Km" name="Página-1">
    <mxGraphModel dx="868" dy="482" grid="1" gridSize="10" guides="1" tooltips="1" connect="1" arrows="1" fold="1" page="1" pageScale="1" pageWidth="980" pageHeight="690" math="0" shadow="0">
      <root>
        <mxCell id="0" />
        <mxCell id="1" parent="0" />
        <mxCell id="kz0E-9WrpfG-92MELIeu-5" style="edgeStyle=orthogonalEdgeStyle;rounded=0;orthogonalLoop=1;jettySize=auto;html=1;exitX=0.5;exitY=1;exitDx=0;exitDy=0;entryX=0.5;entryY=0;entryDx=0;entryDy=0;fontSize=12;" edge="1" parent="1" source="XkvzrvtjhHhNQcdyU6xH-3" target="XkvzrvtjhHhNQcdyU6xH-10">
          <mxGeometry relative="1" as="geometry" />
        </mxCell>
        <mxCell id="XkvzrvtjhHhNQcdyU6xH-3" value="&lt;font style=&quot;vertical-align: inherit; font-size: 12px;&quot;&gt;&lt;font style=&quot;vertical-align: inherit; font-size: 12px;&quot;&gt;DIRECCIÒN GENERAL&lt;/font&gt;&lt;/font&gt;" style="shape=process;whiteSpace=wrap;html=1;backgroundOutline=1;fontStyle=1;fontSize=12;" parent="1" vertex="1">
          <mxGeometry x="315.5" y="80" width="88" height="40" as="geometry" />
        </mxCell>
        <mxCell id="kz0E-9WrpfG-92MELIeu-2" style="edgeStyle=orthogonalEdgeStyle;rounded=0;orthogonalLoop=1;jettySize=auto;html=1;entryX=0.5;entryY=0;entryDx=0;entryDy=0;fontSize=12;" edge="1" parent="1" source="XkvzrvtjhHhNQcdyU6xH-4" target="XkvzrvtjhHhNQcdyU6xH-3">
          <mxGeometry relative="1" as="geometry" />
        </mxCell>
        <mxCell id="XkvzrvtjhHhNQcdyU6xH-4" value="&lt;font style=&quot;vertical-align: inherit&quot;&gt;&lt;font style=&quot;vertical-align: inherit&quot;&gt;&lt;font style=&quot;vertical-align: inherit&quot;&gt;&lt;font style=&quot;vertical-align: inherit&quot;&gt;&lt;font style=&quot;vertical-align: inherit&quot;&gt;&lt;font style=&quot;vertical-align: inherit&quot;&gt;&lt;b&gt;&amp;nbsp; JEFE O DUEÑO&lt;/b&gt;&lt;/font&gt;&lt;/font&gt;&lt;/font&gt;&lt;/font&gt;&lt;/font&gt;&lt;/font&gt;" style="ellipse;shape=cloud;whiteSpace=wrap;html=1;" parent="1" vertex="1">
          <mxGeometry x="289.5" width="140" height="50" as="geometry" />
        </mxCell>
        <mxCell id="XkvzrvtjhHhNQcdyU6xH-5" value="&lt;font style=&quot;vertical-align: inherit; font-size: 12px;&quot;&gt;&lt;font style=&quot;vertical-align: inherit; font-size: 12px;&quot;&gt;&lt;font style=&quot;vertical-align: inherit; font-size: 12px;&quot;&gt;&lt;font style=&quot;vertical-align: inherit; font-size: 12px;&quot;&gt;SUB DIRECCIÒN GENERAL&lt;/font&gt;&lt;/font&gt;&lt;/font&gt;&lt;/font&gt;" style="shape=process;whiteSpace=wrap;html=1;backgroundOutline=1;fontStyle=1;fontSize=12;" parent="1" vertex="1">
          <mxGeometry x="240" y="140" width="90" height="50" as="geometry" />
        </mxCell>
        <mxCell id="XkvzrvtjhHhNQcdyU6xH-6" value="&lt;font style=&quot;vertical-align: inherit; font-size: 12px;&quot;&gt;&lt;font style=&quot;vertical-align: inherit; font-size: 12px;&quot;&gt;SECRETARIA&lt;/font&gt;&lt;/font&gt;" style="shape=process;whiteSpace=wrap;html=1;backgroundOutline=1;fontStyle=1;fontSize=12;" parent="1" vertex="1">
          <mxGeometry x="390" y="190" width="100" height="30" as="geometry" />
        </mxCell>
        <mxCell id="XkvzrvtjhHhNQcdyU6xH-7" value="&lt;font style=&quot;vertical-align: inherit; font-size: 12px;&quot;&gt;&lt;font style=&quot;vertical-align: inherit; font-size: 12px;&quot;&gt;DEPARTAMENTO DE VENTAS&lt;/font&gt;&lt;/font&gt;" style="rounded=1;whiteSpace=wrap;html=1;fontStyle=1;fontSize=12;" parent="1" vertex="1">
          <mxGeometry x="20" y="260" width="120" height="40" as="geometry" />
        </mxCell>
        <mxCell id="XkvzrvtjhHhNQcdyU6xH-9" value="&lt;font style=&quot;vertical-align: inherit ; font-size: 12px&quot;&gt;&lt;font style=&quot;vertical-align: inherit ; font-size: 12px&quot;&gt;PRODUCCIÒN&lt;/font&gt;&lt;/font&gt;" style="rounded=1;whiteSpace=wrap;html=1;fontStyle=1;fontSize=12;" parent="1" vertex="1">
          <mxGeometry x="160" y="260" width="120" height="40" as="geometry" />
        </mxCell>
        <mxCell id="XkvzrvtjhHhNQcdyU6xH-10" value="&lt;font style=&quot;vertical-align: inherit; font-size: 12px;&quot;&gt;&lt;font style=&quot;vertical-align: inherit; font-size: 12px;&quot;&gt;ADMINISTRACIÒN Y FINANZAS&lt;/font&gt;&lt;/font&gt;" style="rounded=1;whiteSpace=wrap;html=1;fontStyle=1;fontSize=12;" parent="1" vertex="1">
          <mxGeometry x="300" y="260" width="120" height="40" as="geometry" />
        </mxCell>
        <mxCell id="XkvzrvtjhHhNQcdyU6xH-11" value="&lt;font style=&quot;vertical-align: inherit; font-size: 12px;&quot;&gt;&lt;font style=&quot;vertical-align: inherit; font-size: 12px;&quot;&gt;AREA TECNICA&lt;/font&gt;&lt;/font&gt;" style="rounded=1;whiteSpace=wrap;html=1;fontStyle=1;fontSize=12;" parent="1" vertex="1">
          <mxGeometry x="440" y="260" width="120" height="40" as="geometry" />
        </mxCell>
        <mxCell id="XkvzrvtjhHhNQcdyU6xH-12" value="&lt;font style=&quot;vertical-align: inherit; font-size: 12px;&quot;&gt;&lt;font style=&quot;vertical-align: inherit; font-size: 12px;&quot;&gt;DIRECCIÒN DE TECNOLOGIAS&lt;/font&gt;&lt;/font&gt;" style="rounded=1;whiteSpace=wrap;html=1;fontStyle=1;fontSize=12;" parent="1" vertex="1">
          <mxGeometry x="580" y="260" width="120" height="40" as="geometry" />
        </mxCell>
        <mxCell id="XkvzrvtjhHhNQcdyU6xH-13" value="" style="endArrow=classic;html=1;rounded=0;fontSize=12;entryX=0;entryY=0.5;entryDx=0;entryDy=0;" parent="1" target="XkvzrvtjhHhNQcdyU6xH-17" edge="1">
          <mxGeometry width="50" height="50" relative="1" as="geometry">
            <mxPoint x="40" y="300" as="sourcePoint" />
            <mxPoint x="40" y="380" as="targetPoint" />
            <Array as="points">
              <mxPoint x="40" y="360" />
            </Array>
          </mxGeometry>
        </mxCell>
        <mxCell id="XkvzrvtjhHhNQcdyU6xH-14" value="CONTADORES" style="text;html=1;strokeColor=none;fillColor=none;align=center;verticalAlign=middle;whiteSpace=wrap;rounded=0;fontSize=12;fontStyle=1" parent="1" vertex="1">
          <mxGeometry x="340" y="315" width="90" height="30" as="geometry" />
        </mxCell>
        <mxCell id="XkvzrvtjhHhNQcdyU6xH-15" value="PUBLICISTAS" style="text;html=1;strokeColor=none;fillColor=none;align=center;verticalAlign=middle;whiteSpace=wrap;rounded=0;fontSize=12;fontStyle=1" parent="1" vertex="1">
          <mxGeometry x="340" y="343.75" width="85" height="30" as="geometry" />
        </mxCell>
        <mxCell id="XkvzrvtjhHhNQcdyU6xH-16" value="CAJERO" style="text;html=1;strokeColor=none;fillColor=none;align=center;verticalAlign=middle;whiteSpace=wrap;rounded=0;fontSize=12;fontStyle=1" parent="1" vertex="1">
          <mxGeometry x="60" y="315" width="60" height="30" as="geometry" />
        </mxCell>
        <mxCell id="XkvzrvtjhHhNQcdyU6xH-17" value="VENDEDOR" style="text;html=1;strokeColor=none;fillColor=none;align=center;verticalAlign=middle;whiteSpace=wrap;rounded=0;fontSize=12;fontStyle=1" parent="1" vertex="1">
          <mxGeometry x="60" y="342.5" width="80" height="35" as="geometry" />
        </mxCell>
        <mxCell id="XkvzrvtjhHhNQcdyU6xH-18" value="" style="endArrow=classic;html=1;rounded=0;fontSize=12;entryX=0;entryY=0.5;entryDx=0;entryDy=0;" parent="1" target="XkvzrvtjhHhNQcdyU6xH-16" edge="1">
          <mxGeometry width="50" height="50" relative="1" as="geometry">
            <mxPoint x="40" y="330" as="sourcePoint" />
            <mxPoint x="90" y="280" as="targetPoint" />
          </mxGeometry>
        </mxCell>
        <mxCell id="XkvzrvtjhHhNQcdyU6xH-22" value="" style="endArrow=classic;html=1;rounded=0;fontSize=12;entryX=0;entryY=0.5;entryDx=0;entryDy=0;" parent="1" edge="1">
          <mxGeometry width="50" height="50" relative="1" as="geometry">
            <mxPoint x="180" y="300" as="sourcePoint" />
            <mxPoint x="200" y="360" as="targetPoint" />
            <Array as="points">
              <mxPoint x="180" y="360" />
            </Array>
          </mxGeometry>
        </mxCell>
        <mxCell id="XkvzrvtjhHhNQcdyU6xH-23" value="" style="endArrow=classic;html=1;rounded=0;fontSize=12;entryX=0;entryY=0.5;entryDx=0;entryDy=0;" parent="1" edge="1">
          <mxGeometry width="50" height="50" relative="1" as="geometry">
            <mxPoint x="320" y="300" as="sourcePoint" />
            <mxPoint x="340" y="360" as="targetPoint" />
            <Array as="points">
              <mxPoint x="320" y="360" />
            </Array>
          </mxGeometry>
        </mxCell>
        <mxCell id="XkvzrvtjhHhNQcdyU6xH-24" value="" style="endArrow=classic;html=1;rounded=0;fontSize=12;entryX=0;entryY=0.5;entryDx=0;entryDy=0;" parent="1" edge="1">
          <mxGeometry width="50" height="50" relative="1" as="geometry">
            <mxPoint x="460" y="300" as="sourcePoint" />
            <mxPoint x="480" y="360" as="targetPoint" />
            <Array as="points">
              <mxPoint x="460" y="360" />
            </Array>
          </mxGeometry>
        </mxCell>
        <mxCell id="XkvzrvtjhHhNQcdyU6xH-26" value="" style="endArrow=classic;html=1;rounded=0;fontSize=12;entryX=0;entryY=0.5;entryDx=0;entryDy=0;fontStyle=1" parent="1" target="XkvzrvtjhHhNQcdyU6xH-27" edge="1">
          <mxGeometry width="50" height="50" relative="1" as="geometry">
            <mxPoint x="180" y="330" as="sourcePoint" />
            <mxPoint x="205" y="329.5" as="targetPoint" />
            <Array as="points">
              <mxPoint x="200" y="330" />
            </Array>
          </mxGeometry>
        </mxCell>
        <mxCell id="XkvzrvtjhHhNQcdyU6xH-27" value="PASTELEROS" style="text;html=1;strokeColor=none;fillColor=none;align=center;verticalAlign=middle;whiteSpace=wrap;rounded=0;fontSize=12;fontStyle=1" parent="1" vertex="1">
          <mxGeometry x="200" y="315" width="90" height="30" as="geometry" />
        </mxCell>
        <mxCell id="XkvzrvtjhHhNQcdyU6xH-28" value="AYUDANTES" style="text;html=1;strokeColor=none;fillColor=none;align=center;verticalAlign=middle;whiteSpace=wrap;rounded=0;fontSize=12;fontStyle=1" parent="1" vertex="1">
          <mxGeometry x="200" y="343.75" width="80" height="32.5" as="geometry" />
        </mxCell>
        <mxCell id="XkvzrvtjhHhNQcdyU6xH-29" value="" style="endArrow=classic;html=1;rounded=0;fontSize=12;entryX=0;entryY=0.5;entryDx=0;entryDy=0;" parent="1" target="XkvzrvtjhHhNQcdyU6xH-14" edge="1">
          <mxGeometry width="50" height="50" relative="1" as="geometry">
            <mxPoint x="320" y="330" as="sourcePoint" />
            <mxPoint x="340" y="330" as="targetPoint" />
            <Array as="points">
              <mxPoint x="320" y="330" />
            </Array>
          </mxGeometry>
        </mxCell>
        <mxCell id="XkvzrvtjhHhNQcdyU6xH-30" value="INGENIEROS" style="text;html=1;strokeColor=none;fillColor=none;align=center;verticalAlign=middle;whiteSpace=wrap;rounded=0;fontSize=12;fontStyle=1" parent="1" vertex="1">
          <mxGeometry x="480" y="312.5" width="80" height="30" as="geometry" />
        </mxCell>
        <mxCell id="XkvzrvtjhHhNQcdyU6xH-31" value="TECNICOS" style="text;html=1;strokeColor=none;fillColor=none;align=center;verticalAlign=middle;whiteSpace=wrap;rounded=0;fontSize=12;fontStyle=1" parent="1" vertex="1">
          <mxGeometry x="480" y="343.75" width="70" height="30" as="geometry" />
        </mxCell>
        <mxCell id="XkvzrvtjhHhNQcdyU6xH-32" value="" style="endArrow=classic;html=1;rounded=0;fontSize=12;entryX=0;entryY=0.5;entryDx=0;entryDy=0;" parent="1" target="XkvzrvtjhHhNQcdyU6xH-30" edge="1">
          <mxGeometry width="50" height="50" relative="1" as="geometry">
            <mxPoint x="459" y="327.15999999999997" as="sourcePoint" />
            <mxPoint x="490" y="327.15999999999997" as="targetPoint" />
          </mxGeometry>
        </mxCell>
        <mxCell id="XkvzrvtjhHhNQcdyU6xH-33" value="" style="endArrow=classic;html=1;rounded=0;fontSize=12;exitX=0;exitY=0.5;exitDx=0;exitDy=0;" parent="1" edge="1" source="XkvzrvtjhHhNQcdyU6xH-6">
          <mxGeometry width="50" height="50" relative="1" as="geometry">
            <mxPoint x="330" y="230" as="sourcePoint" />
            <mxPoint x="361" y="205" as="targetPoint" />
          </mxGeometry>
        </mxCell>
        <mxCell id="kz0E-9WrpfG-92MELIeu-6" value="" style="endArrow=classic;html=1;rounded=0;fontSize=12;exitX=1;exitY=0.5;exitDx=0;exitDy=0;" edge="1" parent="1" source="XkvzrvtjhHhNQcdyU6xH-5">
          <mxGeometry width="50" height="50" relative="1" as="geometry">
            <mxPoint x="340" y="164.5" as="sourcePoint" />
            <mxPoint x="360" y="165" as="targetPoint" />
          </mxGeometry>
        </mxCell>
        <mxCell id="kz0E-9WrpfG-92MELIeu-7" value="" style="endArrow=classic;html=1;rounded=0;fontSize=12;" edge="1" parent="1">
          <mxGeometry width="50" height="50" relative="1" as="geometry">
            <mxPoint x="419" y="510" as="sourcePoint" />
            <mxPoint x="450" y="510" as="targetPoint" />
          </mxGeometry>
        </mxCell>
      </root>
    </mxGraphModel>
  </diagram>
</mxfile>
